# xmcd
#
# Track frame offsets: 
#        150
#        10387
#        22783
#        39375
#        51535
#        69270
#        79977
#        95624
#        107544
#        116933
#        133288
#        143890
#        161064
#        178194
#        191405
#        203273
#
# Disc length: 2833 seconds
#
# Revision: 0
# Processed by: cddbd v1.5.2PL0 Copyright (c) Steve Scherf et al.
# Submitted via: ExactAudioCopy v0.95a4
#
DISCID=dd0b0f10
DTITLE=Judy Coder and Pride of the Prairie - By Request
DYEAR=2004
DGENRE=Country
TTITLE0=Listen to the Rhythm of the Range
TTITLE1=Ghost Riders in the Sky
TTITLE2=Tumblin' Tumbleweeds
TTITLE3=Yodellin' Tex
TTITLE4=Big Iron
TTITLE5=Maiden's Prayer
TTITLE6=Cowgirl Blues
TTITLE7=Cool Water
TTITLE8=Madison Madness
TTITLE9=I Am Weary, Let Me Rest
TTITLE10=Good Bye Old Pal
TTITLE11=Liberty Waltz
TTITLE12=Orange Blossom Special
TTITLE13=Cattle Call
TTITLE14=Don't Ever Fall in Love with a Cowboy
TTITLE15=Happy Trails
EXTD=
EXTT0=
EXTT1=
EXTT2=
EXTT3=
EXTT4=
EXTT5=
EXTT6=
EXTT7=
EXTT8=
EXTT9=
EXTT10=
EXTT11=
EXTT12=
EXTT13=
EXTT14=
EXTT15=
PLAYORDER=
